<?xml version="1.0" standalone="no"?>
<!DOCTYPE svg PUBLIC "-//W3C//DTD SVG 20010904//EN"
 "http://www.w3.org/TR/2001/REC-SVG-20010904/DTD/svg10.dtd">
<svg version="1.0" xmlns="http://www.w3.org/2000/svg"
 width="1280.000000pt" height="1280.000000pt" viewBox="0 0 1280.000000 1280.000000"
 preserveAspectRatio="xMidYMid meet">
<metadata>
Created by potrace 1.16, written by Peter Selinger 2001-2019
</metadata>
<g transform="translate(0.000000,1280.000000) scale(0.100000,-0.100000)"
fill="#000000" stroke="none">
<path d="M0 6400 l0 -6400 6400 0 6400 0 0 6400 0 6400 -6400 0 -6400 0 0
-6400z m6705 4460 c927 -68 1779 -395 2507 -962 136 -106 155 -122 293 -247
468 -429 853 -982 1115 -1601 124 -293 231 -658 285 -968 46 -270 57 -394 62
-722 6 -365 -6 -531 -58 -840 -240 -1430 -1144 -2663 -2432 -3318 -516 -263
-1039 -418 -1627 -483 -158 -17 -609 -23 -775 -10 -623 48 -1161 193 -1702
457 -904 441 -1634 1166 -2087 2071 -373 746 -535 1592 -465 2433 78 941 449
1836 1067 2575 178 212 520 534 757 711 484 362 1063 638 1620 774 221 53 245
58 420 85 327 51 710 67 1020 45z"/>
<path d="M6090 10454 c-94 -9 -308 -36 -390 -50 -47 -8 -110 -19 -140 -24
-171 -29 -483 -123 -710 -212 -1042 -413 -1888 -1242 -2313 -2268 -187 -454
-284 -863 -318 -1345 -13 -183 -7 -531 11 -695 78 -687 302 -1317 668 -1875
95 -144 255 -353 367 -480 84 -94 319 -325 404 -395 29 -25 59 -50 65 -56 7
-6 68 -54 137 -106 511 -387 1112 -652 1749 -772 880 -166 1782 -45 2595 348
301 145 635 363 888 579 161 137 403 387 546 562 461 569 777 1303 880 2045
43 315 52 731 21 980 -26 210 -32 251 -50 350 -85 458 -253 914 -486 1325
-353 622 -901 1175 -1509 1525 -129 74 -432 222 -555 271 -351 139 -677 222
-1090 275 -119 15 -656 28 -770 18z m661 -289 c677 -68 1268 -281 1819 -654
758 -513 1319 -1282 1565 -2146 110 -386 150 -681 150 -1090 -1 -252 -10 -387
-41 -583 -182 -1156 -856 -2159 -1849 -2751 -743 -442 -1556 -623 -2415 -535
-573 58 -1142 253 -1645 562 -246 152 -492 348 -712 569 -629 633 -1009 1434
-1115 2353 -21 190 -16 659 10 860 136 1042 643 1945 1456 2595 567 453 1318
753 2050 820 202 18 543 18 727 0z"/>
<path d="M4340 8652 c-25 -25 -41 -51 -46 -77 -7 -40 8 -308 26 -467 34 -289
62 -673 80 -1093 29 -687 58 -1115 135 -1975 19 -212 39 -441 45 -510 5 -69
15 -190 21 -270 7 -80 13 -194 14 -255 1 -60 8 -148 15 -194 l13 -83 39 6 c90
15 248 79 397 162 183 101 247 145 373 255 214 187 253 235 345 419 89 180
135 311 179 520 28 129 26 412 -4 537 -37 155 -81 282 -147 420 -190 398 -409
655 -699 821 -49 28 -94 53 -100 55 -6 2 3 23 22 48 70 95 229 338 264 405 90
172 146 423 134 605 -10 155 -52 297 -121 405 -147 230 -488 342 -758 249 -40
-14 -43 -13 -67 9 -63 59 -108 61 -160 8z m580 -291 c153 -59 219 -161 243
-373 17 -156 -21 -335 -106 -492 -70 -128 -172 -277 -301 -440 l-71 -89 -7
114 c-3 63 -11 215 -18 339 -6 124 -27 377 -46 563 -19 186 -34 347 -34 357 0
14 15 21 73 33 91 20 195 15 267 -12z m-75 -1675 c114 -42 153 -62 241 -125
182 -128 324 -310 469 -600 106 -213 165 -430 165 -611 0 -117 -32 -296 -76
-421 -103 -296 -201 -433 -438 -612 -87 -65 -269 -167 -300 -167 -13 0 -16 15
-17 98 0 53 -4 120 -9 147 -5 28 -21 176 -34 330 -14 154 -36 404 -50 555 -42
463 -108 1397 -106 1500 1 9 14 0 33 -23 25 -29 52 -45 122 -71z"/>
<path d="M6275 8615 c-33 -7 -72 -18 -86 -23 -21 -8 -30 -7 -42 6 -10 9 -39
17 -75 20 -55 4 -61 2 -95 -27 -84 -74 -64 -194 39 -237 18 -8 42 -14 53 -14
13 0 20 -9 25 -32 8 -48 24 -325 36 -618 29 -715 41 -825 296 -2620 85 -596
168 -1070 200 -1131 14 -28 86 -69 120 -69 11 0 51 15 90 34 64 31 75 40 110
97 21 35 80 148 131 252 51 103 95 187 98 187 4 0 47 -84 96 -186 114 -237
164 -323 238 -411 33 -39 72 -90 87 -114 37 -60 102 -117 147 -131 157 -48
272 197 297 632 13 247 30 630 36 865 7 262 61 1369 74 1510 16 181 31 770 31
1251 l0 451 45 7 c69 9 138 49 158 91 25 52 14 106 -29 144 -48 41 -112 47
-288 27 -78 -9 -185 -21 -237 -27 -164 -18 -218 -62 -208 -168 4 -42 12 -59
37 -84 l32 -32 104 2 105 2 2 -192 c5 -438 -13 -1181 -36 -1532 -20 -296 -44
-743 -56 -1060 -18 -461 -31 -808 -40 -1049 -10 -261 -19 -376 -29 -376 -4 0
-27 39 -52 87 -78 155 -218 412 -258 476 -43 67 -102 118 -195 166 -138 73
-192 30 -342 -272 -38 -75 -71 -137 -74 -137 -7 0 -75 426 -120 755 -17 121
-55 391 -85 600 -149 1043 -181 1350 -205 1960 -9 222 -18 393 -33 634 -2 20
5 26 41 38 112 38 125 196 19 246 -41 20 -80 20 -162 2z"/>
</g>
</svg>
