<?xml version="1.0" standalone="no"?>
<!DOCTYPE svg PUBLIC "-//W3C//DTD SVG 20010904//EN"
 "http://www.w3.org/TR/2001/REC-SVG-20010904/DTD/svg10.dtd">
<svg version="1.0" xmlns="http://www.w3.org/2000/svg"
 width="500.000000pt" height="500.000000pt" viewBox="0 0 500.000000 500.000000"
 preserveAspectRatio="xMidYMid meet">

<g transform="translate(0.000000,500.000000) scale(0.100000,-0.100000)"
fill="#000000" stroke="none">
<path d="M0 2500 l0 -2500 2500 0 2500 0 0 2500 0 2500 -2500 0 -2500 0 0
-2500z m2580 975 c0 -76 -5 -84 -38 -66 -9 5 -59 20 -110 34 l-92 26 2 -311
c2 -227 6 -312 15 -315 13 -5 196 157 452 398 90 85 201 189 246 232 l83 77
96 0 c53 0 96 -4 96 -8 0 -5 -203 -165 -450 -356 -248 -191 -448 -351 -445
-355 2 -5 37 -11 76 -14 156 -13 243 -89 469 -406 156 -220 252 -336 346 -419
l59 -52 -104 0 -104 0 -71 73 c-69 70 -133 153 -306 402 -188 270 -289 365
-386 365 -77 0 -74 17 -74 -437 l0 -403 -70 0 -70 0 0 779 0 778 -50 6 c-58 7
-94 -3 -109 -32 -8 -13 -11 -262 -11 -775 l0 -756 -70 0 -70 0 0 759 c0 733
-1 760 -19 782 -16 20 -27 24 -74 22 -62 -2 -258 -44 -367 -79 -41 -13 -78
-24 -82 -24 -5 0 -8 34 -8 75 l0 75 620 0 620 0 0 -75z m-800 -1936 c0 -6 -9
-13 -20 -16 -16 -4 -20 -14 -20 -49 0 -24 -4 -44 -10 -44 -5 0 -10 20 -10 44
0 35 -4 45 -20 49 -39 10 -20 27 30 27 30 0 50 -4 50 -11z m214 -4 c26 -27 29
-56 8 -84 -24 -32 -46 -37 -77 -17 -33 22 -35 78 -3 100 28 20 52 20 72 1z
m176 -12 l0 -27 30 29 c34 32 55 26 22 -7 l-21 -21 21 -29 c26 -38 13 -51 -17
-16 -24 28 -35 27 -35 -4 0 -10 -4 -18 -10 -18 -6 0 -10 27 -10 60 0 33 4 60
10 60 6 0 10 -12 10 -27z m288 11 c33 -23 30 -78 -4 -101 -24 -15 -29 -15 -53
-2 -33 18 -41 71 -15 100 21 23 42 24 72 3z m182 -11 l0 -27 30 29 c34 33 55
26 22 -7 l-21 -22 20 -33 c16 -25 17 -33 7 -33 -8 0 -21 11 -28 25 -14 27 -30
24 -30 -6 0 -10 -4 -19 -10 -19 -6 0 -10 27 -10 60 0 33 4 60 10 60 6 0 10
-12 10 -27z m230 -33 c0 -33 -4 -60 -10 -60 -6 0 -10 27 -10 60 0 33 4 60 10
60 6 0 10 -27 10 -60z m225 49 c4 -6 -2 -13 -14 -16 -17 -4 -21 -13 -21 -49 0
-24 -4 -44 -10 -44 -5 0 -10 20 -10 44 0 35 -4 45 -20 49 -11 3 -20 10 -20 16
0 14 87 14 95 0z m203 -49 c17 -49 18 -60 6 -60 -8 0 -14 7 -14 15 0 8 -9 15
-20 15 -11 0 -23 -7 -26 -15 -4 -8 -12 -15 -19 -15 -10 0 -8 13 7 52 33 89 39
89 66 8z"/>
<path d="M1936 1514 c-9 -8 -16 -22 -16 -29 0 -14 26 -45 39 -45 14 0 31 24
31 45 0 21 -17 45 -31 45 -4 0 -15 -7 -23 -16z"/>
<path d="M2400 1516 c-15 -19 -9 -56 12 -69 34 -22 66 41 36 71 -16 16 -33 15
-48 -2z"/>
<path d="M3260 1495 c0 -8 4 -15 10 -15 5 0 7 7 4 15 -4 8 -8 15 -10 15 -2 0
-4 -7 -4 -15z"/>
</g>
</svg>
